
<svg version="1.1" id="Layer_1" xmlns="http://www.w3.org/2000/svg" xmlns:xlink="http://www.w3.org/1999/xlink" x="0px" y="0px"
     viewBox="0 0 462.497 97.065" style="enable-background:new 0 0 462.497 97.065;" xml:space="preserve">
<style type="text/css">
    .st0{fill:#8DC63F;}
    .st1{fill:#369242;}
    .st2{fill:#0F1112;}
</style>
<g>
    <g>
        <g>
            <path class="st0" d="M135.825,11.574c-8.133-11.79-24.412-14.795-36.251-6.675l0,0L82.892,16.302v14.146l24.288-16.604
                c6.432-3.668,14.76-1.872,19.037,4.318c4.479,6.489,2.824,15.421-3.712,19.898l0.013,0.031L89.247,60.821l0.077,0.111
                l-0.02,0.006l22.789,32.976l0-20.542l-6.621-9.588l23.633-16.163c0.026,0,0.026-0.018,0.046-0.025
                C140.966,39.471,143.971,23.338,135.825,11.574z"/>
            <path class="st1" d="M83.853,34.787c-0.311-1.496-0.724-2.967-1.189-4.394c-0.207-0.588-1.808-4.928-3.326-7.326
                c-1.505-2.356-2.118-2.942-2.203-3.039l-10.953,7.502l0.013,0.048L44.23,42.61l0,13.867l0.071,0.104l27.565-18.852
                c0.393,2.135,0.575,4.277,0.504,6.456c-0.103,3.081-0.659,6.086-1.667,8.996c-2.131,6.023-6.051,11.115-11.354,14.74
                c-6.633,4.533-14.609,6.244-22.521,4.76c-7.892-1.441-14.751-5.867-19.317-12.45c-4.547-6.599-6.246-14.532-4.779-22.405
                c1.466-7.857,5.922-14.673,12.529-19.201c2.938-2.008,6.148-3.461,9.565-4.34c3.287-0.837,6.684-1.106,10.101-0.819
                c5.038,0.439,9.882,2.16,14.06,4.912l10.662-7.292c-6.335-5.329-14.111-8.74-22.423-9.704
                C37.035,0.188,26.786,2.726,18.338,8.501c-4.708,3.214-8.661,7.273-11.696,12.033c-2.958,4.573-4.954,9.631-5.961,15.009
                c-0.994,5.377-0.923,10.821,0.168,16.154c1.143,5.536,3.384,10.723,6.607,15.417c3.248,4.688,7.318,8.606,12.09,11.644
                c4.631,2.936,9.721,4.931,15.113,5.921c5.425,1.025,10.888,0.964,16.23-0.134c5.561-1.13,10.773-3.334,15.481-6.55
                c4.721-3.223,8.641-7.275,11.69-12.023c2.939-4.596,4.966-9.642,5.955-15.019C85.002,45.571,84.95,40.121,83.853,34.787z"/>
        </g>
        <g>
            <path class="st2" d="M173.949,62.551c0,2.577,0.039,3.754,0.311,5.674c-3.122,1.711-4.712,2.41-7.042,3.005
                c-1.967,0.54-4.31,0.835-6.452,0.835c-5.498,0-9.716-1.694-12.475-5.023c-2.694-3.147-4.135-7.864-4.135-13.287
                c0-6.949,2.441-12.278,7.023-15.345c2.739-1.784,5.725-2.576,9.749-2.576c4.018,0,7.647,1.355,10.119,3.759
                c1.538,1.484,2.33,2.768,3.258,5.203l-6.023,1.625c-1.46-3.98-3.564-5.385-8.101-5.385c-2.59,0-5.004,0.975-6.673,2.667
                c-2.193,2.276-3.258,5.509-3.258,9.967c0,4.514,1.026,7.906,2.999,10.226c1.791,2.098,4.18,3.029,7.64,3.029
                c2.986,0,5.225-0.569,7.471-1.968v-7.153h-2.376c-2.232,0-3.154,0.067-4.466,0.289v-5.649c1.564,0.232,2.538,0.268,5.265,0.268
                h2.284c2.025,0,3.298-0.035,5.193-0.178c-0.221,1.614-0.311,2.975-0.311,5.423V62.551z"/>
            <path class="st2" d="M178.564,58.993c0-8.138,5.088-13.333,13.098-13.333c7.945,0,13.001,5.157,13.001,13.241
                c0,8.091-5.147,13.428-12.963,13.428C183.653,72.329,178.564,67.176,178.564,58.993z M184.237,58.993
                c0,5.385,2.811,8.698,7.373,8.698c4.57,0,7.381-3.268,7.381-8.6c0-5.649-2.681-8.869-7.329-8.869
                C187.048,50.222,184.237,53.541,184.237,58.993z"/>
            <path class="st2" d="M218.294,39.684c-0.187,1.522-0.304,3.411-0.304,5.368v1.368h1.823c2.077,0,3.044-0.05,4.453-0.27v5.153
                c-1.461-0.209-2.297-0.27-4.317-0.27h-1.96v13.58c0,2.115,0.779,2.906,2.888,2.906c1.142,0,1.843-0.226,3.207-0.95l0.785,4.631
                c-1.862,0.699-3.2,0.926-5.485,0.926c-5.056,0-7.069-1.79-7.069-6.403v-14.69h-1.668c-1.629,0-2.453,0.061-3.921,0.27V46.15
                c1.272,0.22,2.11,0.27,3.96,0.27h1.629v-1.368c0-1.878-0.149-3.798-0.324-5.368H218.294z"/>
            <path class="st2" d="M228.524,71.512c0.266-1.761,0.351-3.287,0.351-5.643V42.224c0-2.111-0.085-3.675-0.351-5.643
                c1.882,0.086,3.258,0.13,5.589,0.13h9.178c4.264,0,7.256,0.999,9.36,3.103c1.803,1.754,2.725,4.368,2.725,7.513
                c0,3.331-1.018,6.043-2.947,8.042c-2.142,2.146-5.147,3.16-9.353,3.16h-8.4v7.293c0,2.362,0.066,4.023,0.357,5.691H228.524z
                 M243.076,53.497c4.037,0,6.237-2.14,6.237-5.992c0-1.759-0.493-3.183-1.434-4.194c-1.026-1.087-2.473-1.576-4.803-1.576h-8.4
                v11.763H243.076z"/>
            <path class="st2" d="M276.251,51.916c-1.843-0.528-2.778-0.693-3.921-0.693c-2.195,0-3.85,0.693-5.102,2.146
                c-1.091,1.263-1.532,2.264-1.779,4.368v8.084c0,2.362,0.072,3.612,0.299,5.691h-6.289c0.234-2.146,0.311-3.415,0.311-5.691
                V52.099c0-2.674-0.045-3.901-0.311-5.678h5.99v4.11c1.584-3.111,4.298-4.606,8.244-4.606c1.058,0,2.104,0.14,4.089,0.496
                L276.251,51.916z"/>
            <path class="st2" d="M287.447,36.711v5.551h-6.452v-5.551H287.447z M287.415,46.42c-0.234,1.599-0.311,3.048-0.311,5.722v13.629
                c0,2.412,0.077,3.895,0.311,5.741h-6.42c0.26-1.974,0.358-3.513,0.358-5.691V52.099c0-2.398-0.098-3.901-0.358-5.678H287.415z"/>
            <path class="st2" d="M292.913,71.512c0.253-1.901,0.35-3.243,0.35-5.691V52.099c0-2.398-0.097-3.901-0.35-5.678h5.958v2.305
                c0,0.657,0,0.791-0.071,1.884c2.668-3.423,5.004-4.631,8.957-4.631c3.381,0,5.887,1.086,7.47,3.233
                c1.059,1.447,1.493,3.183,1.493,6.133v10.478c0,2.404,0.084,4.054,0.344,5.691h-6.361c0.214-1.974,0.305-3.459,0.305-5.691
                v-9.705c0-1.834-0.22-3.017-0.74-3.84c-0.706-1.146-2.025-1.797-3.699-1.797c-3.148,0-5.758,2.196-7.698,6.514v8.827
                c0,2.153,0.104,3.79,0.363,5.691H292.913z"/>
            <path class="st2" d="M331.708,39.684c-0.176,1.522-0.318,3.411-0.318,5.368v1.368h1.863c2.057,0,3.024-0.05,4.426-0.27v5.153
                c-1.447-0.209-2.291-0.27-4.303-0.27h-1.986v13.58c0,2.115,0.812,2.906,2.908,2.906c1.149,0,1.85-0.226,3.206-0.95l0.792,4.631
                c-1.876,0.699-3.2,0.926-5.485,0.926c-5.056,0-7.068-1.79-7.068-6.403v-14.69h-1.682c-1.616,0-2.459,0.061-3.913,0.27V46.15
                c1.265,0.22,2.109,0.27,3.96,0.27h1.635v-1.368c0-1.878-0.15-3.798-0.331-5.368H331.708z"/>
            <path class="st2" d="M373.716,54.804c-0.473-1.361-0.785-1.962-1.369-2.662c-1.058-1.325-2.577-2.012-4.524-2.012
                c-4.297,0-6.971,3.367-6.971,8.771c0,5.477,2.72,8.847,7.152,8.847c2.208,0,3.966-0.884,5.057-2.442
                c0.396-0.62,0.609-1.099,0.882-2.196l5.446,1.097c-0.61,1.742-1.058,2.657-1.837,3.716c-2.123,2.883-5.51,4.405-9.678,4.405
                c-7.724,0-12.748-5.201-12.748-13.279c0-4.11,1.324-7.661,3.739-10.103c2.155-2.196,5.231-3.331,8.84-3.331
                c4.297,0,7.724,1.668,9.847,4.73c0.552,0.877,0.915,1.57,1.519,3.195L373.716,54.804z"/>
            <path class="st2" d="M382.596,58.993c0-8.138,5.108-13.333,13.099-13.333c7.97,0,12.982,5.157,12.982,13.241
                c0,8.091-5.121,13.428-12.936,13.428C387.704,72.329,382.596,67.176,382.596,58.993z M388.276,58.993
                c0,5.385,2.804,8.698,7.374,8.698c4.557,0,7.379-3.268,7.379-8.6c0-5.649-2.661-8.869-7.334-8.869
                C391.08,50.222,388.276,53.541,388.276,58.993z"/>
            <path class="st2" d="M413.084,71.512c0.22-1.901,0.318-3.329,0.318-5.691V52.099c0-2.76-0.097-4.029-0.318-5.678h5.906v2.203
                c0,0.281,0,0.944-0.052,1.637c1.273-2.663,4.531-4.367,8.166-4.367c2.375,0,4.309,0.661,5.66,1.962
                c0.824,0.706,1.174,1.265,1.687,2.626c1.493-1.968,2.331-2.754,3.7-3.459c1.441-0.798,2.94-1.129,4.92-1.129
                c2.811,0,5.095,0.858,6.595,2.489c1.44,1.576,2.064,3.535,2.064,6.625v10.815c0,2.448,0.077,3.888,0.35,5.691h-6.425
                c0.266-1.803,0.357-3.122,0.357-5.691v-9.797c0-3.84-1.363-5.593-4.303-5.593c-1.454,0-2.551,0.385-3.609,1.307
                c-1.539,1.313-2.246,2.715-2.772,5.427v8.656c0,2.404,0.078,3.888,0.306,5.691h-6.316c0.26-1.847,0.338-3.195,0.338-5.691v-9.797
                c0-3.673-1.396-5.495-4.258-5.495c-1.837,0-3.342,0.741-4.532,2.261c-0.96,1.277-1.408,2.276-1.875,4.374v8.656
                c0,2.362,0.072,3.666,0.299,5.691H413.084z"/>
        </g>
        <g>
            <path class="st0" d="M346.364,71.531l-3.68-5.208l5.238-3.668l3.7,5.22L346.364,71.531z"/>
        </g>
        <g>
            <path class="st2" d="M460.788,46.04c-1.105,1.108-2.44,1.663-4.008,1.663c-1.567,0-2.9-0.554-4-1.663
                c-1.094-1.103-1.642-2.44-1.642-4.01c0-1.555,0.552-2.884,1.657-3.987c1.1-1.098,2.428-1.647,3.984-1.647
                c1.567,0,2.903,0.549,4.008,1.647c1.105,1.098,1.657,2.427,1.657,3.987C462.445,43.595,461.893,44.931,460.788,46.04z
                 M453.343,38.597c-0.945,0.949-1.418,2.096-1.418,3.441c0,1.355,0.47,2.509,1.41,3.464c0.945,0.954,2.094,1.432,3.445,1.432
                s2.5-0.477,3.445-1.432c0.945-0.954,1.418-2.109,1.418-3.464c0-1.344-0.473-2.491-1.418-3.441
                c-0.951-0.954-2.099-1.432-3.445-1.432C455.439,37.165,454.294,37.642,453.343,38.597z M456.672,38.912
                c0.771,0,1.336,0.074,1.696,0.223c0.642,0.267,0.963,0.791,0.963,1.572c0,0.555-0.202,0.963-0.606,1.225
                c-0.214,0.138-0.514,0.239-0.897,0.3c0.486,0.077,0.841,0.28,1.065,0.607c0.225,0.328,0.338,0.648,0.338,0.961v0.454
                c0,0.143,0.005,0.297,0.015,0.461c0.01,0.164,0.028,0.271,0.054,0.323l0.039,0.077h-1.025c-0.005-0.021-0.01-0.041-0.015-0.062
                c-0.005-0.021-0.01-0.044-0.016-0.069l-0.023-0.199v-0.491c0-0.716-0.195-1.189-0.586-1.419
                c-0.231-0.133-0.637-0.199-1.218-0.199h-0.863v2.44h-1.094v-6.204H456.672z M457.854,39.89c-0.275-0.154-0.717-0.231-1.326-0.231
                h-0.935v2.248h0.989c0.464,0,0.812-0.046,1.044-0.138c0.428-0.169,0.642-0.493,0.642-0.97
                C458.268,40.346,458.13,40.044,457.854,39.89z"/>
        </g>
    </g>
    <g>
        <path class="st0" d="M263.979,93.47l0.954-4.987l-2.359-7.148h2.233l0.954,3.457c0.27,1.044,0.396,1.585,0.504,2.125h0.036
            c0.324-0.576,0.72-1.261,1.26-2.161l2.179-3.421h2.484l-5.204,7.112l-0.954,5.023H263.979z"/>
        <path class="st0" d="M278.795,88.14c0,2.972-2.089,5.528-5.078,5.528c-2.214,0-3.583-1.53-3.583-3.619
            c0-2.971,2.071-5.546,5.06-5.546C277.553,84.503,278.795,86.196,278.795,88.14z M272.295,89.995c0,1.206,0.648,2.052,1.71,2.052
            c1.566,0,2.611-2.16,2.611-3.907c0-0.899-0.396-2.016-1.674-2.016C273.267,86.124,272.295,88.357,272.295,89.995z"/>
        <path class="st0" d="M288.767,84.702l-1.152,6.05c-0.198,1.044-0.324,1.963-0.432,2.719h-1.855l0.18-1.53h-0.036
            c-0.846,1.134-1.944,1.729-3.043,1.729c-1.278,0-2.287-0.685-2.287-2.485c0-0.468,0.054-0.972,0.18-1.566l0.937-4.915h2.088
            l-0.9,4.789c-0.09,0.433-0.144,0.864-0.144,1.207c0,0.72,0.288,1.242,1.117,1.242c0.972,0,2.106-1.152,2.449-2.971l0.81-4.268
            H288.767z"/>
        <path class="st0" d="M289.502,93.47l1.026-5.401c0.234-1.242,0.342-2.575,0.45-3.367h1.819c-0.054,0.594-0.108,1.206-0.198,1.854
            h0.054c0.594-1.188,1.548-2.053,2.755-2.053c0.144,0,0.306,0.019,0.45,0.036l-0.414,2.053c-0.108-0.019-0.252-0.036-0.396-0.036
            c-1.495,0-2.449,1.513-2.791,3.385l-0.666,3.529H289.502z"/>
        <path class="st0" d="M301.383,81.533c0.738-0.18,1.836-0.288,2.935-0.288c1.116,0,2.323,0.234,3.097,0.864
            c0.72,0.54,1.117,1.332,1.117,2.413c0,1.44-0.667,2.593-1.549,3.295c-0.972,0.773-2.358,1.152-3.799,1.152
            c-0.432,0-0.811-0.055-1.134-0.091l-0.864,4.592h-2.071L301.383,81.533z M302.373,87.15c0.342,0.072,0.648,0.108,1.099,0.108
            c1.782,0,2.953-1.134,2.953-2.575c0-1.278-0.918-1.746-2.106-1.746c-0.522,0-0.918,0.036-1.152,0.108L302.373,87.15z"/>
        <path class="st0" d="M308.546,93.47l1.026-5.401c0.234-1.242,0.342-2.575,0.45-3.367h1.819c-0.054,0.594-0.108,1.206-0.198,1.854
            h0.054c0.594-1.188,1.548-2.053,2.754-2.053c0.145,0,0.306,0.019,0.45,0.036l-0.414,2.053c-0.108-0.019-0.252-0.036-0.396-0.036
            c-1.495,0-2.449,1.513-2.791,3.385l-0.666,3.529H308.546z"/>
        <path class="st0" d="M323.596,88.14c0,2.972-2.089,5.528-5.078,5.528c-2.215,0-3.583-1.53-3.583-3.619
            c0-2.971,2.071-5.546,5.06-5.546C322.354,84.503,323.596,86.196,323.596,88.14z M317.096,89.995c0,1.206,0.648,2.052,1.71,2.052
            c1.566,0,2.611-2.16,2.611-3.907c0-0.899-0.396-2.016-1.674-2.016C318.069,86.124,317.096,88.357,317.096,89.995z"/>
        <path class="st0" d="M324.493,93.47l1.117-6.05c0.198-1.044,0.342-1.963,0.432-2.719h1.818l-0.18,1.53h0.018
            c0.828-1.17,1.909-1.729,3.043-1.729c1.369,0,1.999,0.864,2.071,1.801c0.774-1.206,1.891-1.782,3.097-1.801
            c1.207,0,2.143,0.774,2.143,2.341c0,0.378-0.072,1.026-0.144,1.494l-0.972,5.132h-2.035l0.918-4.897
            c0.054-0.36,0.126-0.756,0.126-1.116c0-0.738-0.306-1.242-1.081-1.242c-0.954,0-2.017,1.206-2.358,3.061l-0.792,4.195h-2.017
            l0.937-4.97c0.072-0.36,0.108-0.702,0.108-1.026c0-0.666-0.198-1.26-1.044-1.26c-0.972,0-2.088,1.314-2.413,3.097l-0.756,4.159
            H324.493z"/>
        <path class="st0" d="M348.148,88.14c0,2.972-2.089,5.528-5.078,5.528c-2.215,0-3.583-1.53-3.583-3.619
            c0-2.971,2.071-5.546,5.06-5.546C346.905,84.503,348.148,86.196,348.148,88.14z M341.648,89.995c0,1.206,0.648,2.052,1.71,2.052
            c1.566,0,2.611-2.16,2.611-3.907c0-0.899-0.396-2.016-1.674-2.016C342.62,86.124,341.648,88.357,341.648,89.995z"/>
        <path class="st0" d="M353.529,82.288l-0.449,2.413h1.98l-0.324,1.62h-1.963l-0.702,3.547c-0.072,0.415-0.144,0.865-0.144,1.243
            c0,0.468,0.216,0.774,0.773,0.774c0.252,0,0.505,0,0.721-0.036l-0.198,1.638c-0.306,0.108-0.864,0.181-1.368,0.181
            c-1.44,0-2.089-0.792-2.089-1.801c0-0.504,0.054-0.99,0.198-1.639l0.756-3.907h-1.188l0.306-1.62h1.188l0.359-1.891
            L353.529,82.288z"/>
        <path class="st0" d="M355.039,93.47l1.656-8.769h2.106l-1.674,8.769H355.039z M357.038,82.325c0-0.756,0.576-1.278,1.26-1.278
            c0.648,0,1.117,0.469,1.117,1.135c-0.019,0.773-0.595,1.26-1.297,1.26C357.47,83.441,357.02,82.973,357.038,82.325z"/>
        <path class="st0" d="M368.398,88.14c0,2.972-2.088,5.528-5.077,5.528c-2.215,0-3.583-1.53-3.583-3.619
            c0-2.971,2.07-5.546,5.06-5.546C367.155,84.503,368.398,86.196,368.398,88.14z M361.899,89.995c0,1.206,0.647,2.052,1.71,2.052
            c1.566,0,2.61-2.16,2.61-3.907c0-0.899-0.396-2.016-1.674-2.016C362.87,86.124,361.899,88.357,361.899,89.995z"/>
        <path class="st0" d="M369.295,93.47l1.134-6.05c0.217-1.044,0.343-1.963,0.45-2.719h1.854l-0.18,1.584h0.036
            c0.811-1.188,1.927-1.782,3.15-1.782c1.243,0,2.233,0.756,2.233,2.413c0,0.396-0.072,1.008-0.162,1.458l-0.973,5.096h-2.089
            l0.937-4.951c0.054-0.324,0.108-0.702,0.108-1.045c0-0.72-0.271-1.26-1.099-1.26c-0.954,0-2.179,1.152-2.557,3.205l-0.757,4.051
            H369.295z"/>
        <path class="st0" d="M384.957,93.47c0.018-0.522,0.09-1.225,0.162-1.98h-0.055c-0.864,1.62-2.017,2.179-3.133,2.179
            c-1.566,0-2.593-1.225-2.593-2.989c0-2.988,2.089-6.176,6.176-6.176c0.954,0,1.98,0.18,2.647,0.396l-0.9,4.573
            c-0.252,1.314-0.396,2.953-0.36,3.997H384.957z M385.821,86.214c-0.216-0.055-0.486-0.09-0.864-0.09
            c-1.945,0-3.439,2.178-3.439,4.177c0,0.918,0.342,1.675,1.261,1.675c0.972,0,2.16-1.225,2.574-3.457L385.821,86.214z"/>
        <path class="st0" d="M388.915,93.47l2.448-12.784h2.089l-2.431,12.784H388.915z"/>
        <path class="st0" d="M404.252,88.069h-4.356l-0.685,3.619h4.897l-0.342,1.782h-7.005l2.305-12.136h6.734l-0.342,1.782h-4.628
            l-0.612,3.188h4.376L404.252,88.069z"/>
        <path class="st0" d="M408.535,84.702l0.684,1.584c0.252,0.631,0.414,1.081,0.559,1.44h0.054c0.324-0.468,0.559-0.828,0.954-1.368
            l1.261-1.656h2.413l-3.71,4.268l2.053,4.501h-2.286l-0.702-1.656c-0.271-0.648-0.414-1.045-0.595-1.585h-0.054
            c-0.252,0.414-0.504,0.847-0.882,1.423l-1.387,1.818h-2.413l3.817-4.52l-2.053-4.249H408.535z"/>
        <path class="st0" d="M413.376,97.036l1.71-9.075c0.198-1.044,0.396-2.358,0.505-3.259h1.891l-0.198,1.44h0.036
            c0.756-1.044,1.836-1.639,2.971-1.639c1.891,0,2.772,1.549,2.772,3.259c0,3.062-2.124,5.906-5.113,5.906
            c-0.811,0-1.423-0.181-1.746-0.378h-0.036l-0.702,3.745H413.376z M416.509,91.616c0.324,0.271,0.792,0.432,1.404,0.432
            c1.62,0,2.953-2.16,2.953-4.123c0-0.81-0.36-1.71-1.387-1.71c-1.062,0-2.215,1.206-2.593,3.259L416.509,91.616z"/>
        <path class="st0" d="M430.874,92.966c-0.864,0.45-2.035,0.684-3.097,0.684c-2.431,0-3.602-1.477-3.602-3.619
            c0-2.646,1.944-5.527,4.97-5.527c1.729,0,2.827,1.009,2.827,2.467c0,2.251-2.359,2.971-5.744,2.898
            c-0.036,0.307,0.036,0.9,0.234,1.243c0.342,0.594,0.972,0.9,1.8,0.9c0.991,0,1.783-0.253,2.413-0.576L430.874,92.966z
             M428.875,86.07c-1.314,0-2.179,1.171-2.431,2.232c2.161,0.036,3.547-0.27,3.547-1.314
            C429.991,86.411,429.541,86.07,428.875,86.07z"/>
        <path class="st0" d="M432.618,93.47l1.026-5.401c0.233-1.242,0.342-2.575,0.45-3.367h1.818c-0.054,0.594-0.108,1.206-0.198,1.854
            h0.054c0.595-1.188,1.549-2.053,2.755-2.053c0.145,0,0.307,0.019,0.45,0.036l-0.414,2.053c-0.108-0.019-0.252-0.036-0.396-0.036
            c-1.495,0-2.449,1.513-2.791,3.385l-0.666,3.529H432.618z"/>
        <path class="st0" d="M443.816,82.288l-0.45,2.413h1.98l-0.324,1.62h-1.963l-0.702,3.547c-0.071,0.415-0.144,0.865-0.144,1.243
            c0,0.468,0.216,0.774,0.774,0.774c0.252,0,0.504,0,0.72-0.036l-0.198,1.638c-0.306,0.108-0.864,0.181-1.368,0.181
            c-1.44,0-2.089-0.792-2.089-1.801c0-0.504,0.055-0.99,0.198-1.639l0.756-3.907h-1.188l0.306-1.62h1.188l0.36-1.891L443.816,82.288
            z"/>
        <path class="st0" d="M445.541,91.507c0.45,0.252,1.314,0.595,2.106,0.595c0.847-0.019,1.351-0.505,1.351-1.081
            c0-0.558-0.288-0.899-1.152-1.35c-1.008-0.522-1.729-1.278-1.729-2.287c0-1.692,1.477-2.881,3.547-2.881
            c0.918,0,1.675,0.216,2.07,0.45l-0.54,1.513c-0.323-0.181-0.918-0.396-1.638-0.396c-0.793,0-1.333,0.433-1.333,1.026
            c0,0.486,0.396,0.828,1.135,1.206c0.954,0.522,1.818,1.243,1.818,2.359c0,1.927-1.62,2.988-3.728,2.988
            c-1.026,0-1.98-0.288-2.448-0.63L445.541,91.507z"/>
    </g>
</g>
</svg>
